<svg version="1.1" viewBox="0.0 0.0 638.0 556.0" fill="none" stroke="none" stroke-linecap="square" stroke-miterlimit="10" width="638" height="556" xmlns:xlink="http://www.w3.org/1999/xlink" xmlns="http://www.w3.org/2000/svg"><path fill="#000000" d="M0 0L638.0 0L638.0 556.0L0 556.0L0 0Z" fill-rule="nonzero"/><path stroke="#333333" stroke-width="1.0" stroke-linecap="butt" d="M131.5 135.5L131.5 455.5" fill-rule="nonzero"/><path stroke="#333333" stroke-width="1.0" stroke-linecap="butt" d="M210.5 135.5L210.5 455.5" fill-rule="nonzero"/><path stroke="#333333" stroke-width="1.0" stroke-linecap="butt" d="M289.5 135.5L289.5 455.5" fill-rule="nonzero"/><path stroke="#333333" stroke-width="1.0" stroke-linecap="butt" d="M368.5 135.5L368.5 455.5" fill-rule="nonzero"/><path stroke="#333333" stroke-width="1.0" stroke-linecap="butt" d="M447.5 135.5L447.5 455.5" fill-rule="nonzero"/><path stroke="#333333" stroke-width="1.0" stroke-linecap="butt" d="M526.5 135.5L526.5 455.5" fill-rule="nonzero"/><path stroke="#333333" stroke-width="1.0" stroke-linecap="butt" d="M605.5 135.5L605.5 455.5" fill-rule="nonzero"/><path stroke="#cccccc" stroke-width="1.0" stroke-linecap="butt" d="M86.5 455.5L610.5 455.5" fill-rule="nonzero"/><path stroke="#333333" stroke-width="1.0" stroke-linecap="butt" d="M86.5 375.5L610.5 375.5" fill-rule="nonzero"/><path stroke="#333333" stroke-width="1.0" stroke-linecap="butt" d="M86.5 295.5L610.5 295.5" fill-rule="nonzero"/><path stroke="#333333" stroke-width="1.0" stroke-linecap="butt" d="M86.5 215.5L610.5 215.5" fill-rule="nonzero"/><path stroke="#333333" stroke-width="1.0" stroke-linecap="butt" d="M86.5 135.5L610.5 135.5" fill-rule="nonzero"/><clipPath id="id_0"><path d="M86.8 135.86667L610.2 135.86667L610.2 455.6763L86.8 455.6763L86.8 135.86667Z" clip-rule="nonzero"/></clipPath><path stroke="#a4c2f4" stroke-width="4.0" stroke-linecap="butt" clip-path="url(#id_0)" d="M91.70626 374.5086C91.70626 374.5086 104.96385 371.84354 111.59264 369.8394C118.22144 367.83527 124.850235 364.95596 131.47903 362.48376C138.10782 360.01157 157.56189 351.57956 170.60333 347.77252C183.64476 343.9655 203.96346 342.09402 217.07693 338.1143C230.19043 334.13452 245.39342 325.32062 256.4174 322.41162C267.44138 319.50262 278.46533 321.1514 289.48932 318.15814C300.5133 315.16492 315.57217 307.00568 328.61362 301.94382C341.65506 296.88196 355.34494 295.32196 368.38638 287.55237C381.42783 279.7828 394.46924 262.14294 407.51068 255.09169C420.55212 248.04045 434.242 249.75566 447.28345 245.08165C460.3249 240.40765 473.3663 232.17195 486.40775 226.88449C499.4492 221.59703 512.9229 217.05002 526.18054 213.13268C539.4381 209.21533 561.1978 203.67998 572.2218 201.8434C583.2458 200.00682 605.29376 198.93312 605.29376 198.93312" fill-rule="nonzero"/><path stroke="#dc3912" stroke-width="4.0" stroke-linecap="butt" clip-path="url(#id_0)" d="M91.70626 447.55313C91.70626 447.55313 104.96385 447.15338 111.59264 446.9455C118.22144 446.7376 124.850235 446.52628 131.47903 446.30588C138.10782 446.08548 157.56189 445.38846 170.60333 444.96268C183.64476 444.5369 203.96346 444.03574 217.07693 443.52353C230.19043 443.01135 245.39342 442.07776 256.4174 441.66864C267.44138 441.2595 278.46533 441.06207 289.48932 440.77316C300.5133 440.48425 315.57217 440.04138 328.61362 439.78177C341.65506 439.52216 355.34494 439.60962 368.38638 439.20612C381.42783 438.80258 394.46924 437.7757 407.51068 437.3512C420.55212 436.9267 434.242 436.95486 447.28345 436.6476C460.3249 436.3404 473.3663 435.75635 486.40775 435.4963C499.4492 435.23627 512.9229 435.18668 526.18054 435.08057C539.4381 434.97443 561.1978 434.9886 572.2218 434.8247C583.2458 434.66083 605.29376 434.02518 605.29376 434.02518" fill-rule="nonzero"/><path fill="#a4c2f4" clip-path="url(#id_0)" d="M95.20626 374.5086C95.20626 376.44162 93.63926 378.0086 91.70626 378.0086C89.77326 378.0086 88.20626 376.44162 88.20626 374.5086C88.20626 372.57562 89.77326 371.0086 91.70626 371.0086C93.63926 371.0086 95.20626 372.57562 95.20626 374.5086Z" fill-rule="nonzero"/><path fill="#a4c2f4" clip-path="url(#id_0)" d="M115.09264 369.8394C115.09264 371.7724 113.52564 373.3394 111.59264 373.3394C109.659645 373.3394 108.09264 371.7724 108.09264 369.8394C108.09264 367.9064 109.659645 366.3394 111.59264 366.3394C113.52564 366.3394 115.09264 367.9064 115.09264 369.8394Z" fill-rule="nonzero"/><path fill="#a4c2f4" clip-path="url(#id_0)" d="M134.97903 362.48376C134.97903 364.41678 133.41203 365.98376 131.47903 365.98376C129.54604 365.98376 127.97903 364.41678 127.97903 362.48376C127.97903 360.55078 129.54604 358.98376 131.47903 358.98376C133.41203 358.98376 134.97903 360.55078 134.97903 362.48376Z" fill-rule="nonzero"/><path fill="#a4c2f4" clip-path="url(#id_0)" d="M174.10333 347.77252C174.10333 349.70554 172.53633 351.27252 170.60333 351.27252C168.67033 351.27252 167.10333 349.70554 167.10333 347.77252C167.10333 345.83954 168.67033 344.27252 170.60333 344.27252C172.53633 344.27252 174.10333 345.83954 174.10333 347.77252Z" fill-rule="nonzero"/><path fill="#a4c2f4" clip-path="url(#id_0)" d="M220.57693 338.1143C220.57693 340.04727 219.00993 341.6143 217.07693 341.6143C215.14395 341.6143 213.57693 340.04727 213.57693 338.1143C213.57693 336.18127 215.14395 334.6143 217.07693 334.6143C219.00993 334.6143 220.57693 336.18127 220.57693 338.1143Z" fill-rule="nonzero"/><path fill="#a4c2f4" clip-path="url(#id_0)" d="M259.9174 322.41162C259.9174 324.34464 258.3504 325.91162 256.4174 325.91162C254.4844 325.91162 252.9174 324.34464 252.9174 322.41162C252.9174 320.47864 254.4844 318.91162 256.4174 318.91162C258.3504 318.91162 259.9174 320.47864 259.9174 322.41162Z" fill-rule="nonzero"/><path fill="#a4c2f4" clip-path="url(#id_0)" d="M292.98932 318.15814C292.98932 320.09116 291.4223 321.65814 289.48932 321.65814C287.55634 321.65814 285.98932 320.09116 285.98932 318.15814C285.98932 316.22516 287.55634 314.65814 289.48932 314.65814C291.4223 314.65814 292.98932 316.22516 292.98932 318.15814Z" fill-rule="nonzero"/><path fill="#a4c2f4" clip-path="url(#id_0)" d="M332.11362 301.94382C332.11362 303.8768 330.5466 305.44382 328.61362 305.44382C326.68063 305.44382 325.11362 303.8768 325.11362 301.94382C325.11362 300.0108 326.68063 298.44382 328.61362 298.44382C330.5466 298.44382 332.11362 300.0108 332.11362 301.94382Z" fill-rule="nonzero"/><path fill="#a4c2f4" clip-path="url(#id_0)" d="M371.88638 287.55237C371.88638 289.48538 370.31937 291.05237 368.38638 291.05237C366.4534 291.05237 364.88638 289.48538 364.88638 287.55237C364.88638 285.6194 366.4534 284.05237 368.38638 284.05237C370.31937 284.05237 371.88638 285.6194 371.88638 287.55237Z" fill-rule="nonzero"/><path fill="#a4c2f4" clip-path="url(#id_0)" d="M411.01068 255.09169C411.01068 257.0247 409.44366 258.5917 407.51068 258.5917C405.5777 258.5917 404.01068 257.0247 404.01068 255.09169C404.01068 253.1587 405.5777 251.59169 407.51068 251.59169C409.44366 251.59169 411.01068 253.1587 411.01068 255.09169Z" fill-rule="nonzero"/><path fill="#a4c2f4" clip-path="url(#id_0)" d="M450.78345 245.08165C450.78345 247.01465 449.21646 248.58165 447.28345 248.58165C445.35046 248.58165 443.78345 247.01465 443.78345 245.08165C443.78345 243.14867 445.35046 241.58165 447.28345 241.58165C449.21646 241.58165 450.78345 243.14867 450.78345 245.08165Z" fill-rule="nonzero"/><path fill="#a4c2f4" clip-path="url(#id_0)" d="M489.90775 226.88449C489.90775 228.81749 488.34076 230.38449 486.40775 230.38449C484.47476 230.38449 482.90775 228.81749 482.90775 226.88449C482.90775 224.95149 484.47476 223.38449 486.40775 223.38449C488.34076 223.38449 489.90775 224.95149 489.90775 226.88449Z" fill-rule="nonzero"/><path fill="#a4c2f4" clip-path="url(#id_0)" d="M529.68054 213.13268C529.68054 215.06567 528.1135 216.63268 526.18054 216.63268C524.2475 216.63268 522.68054 215.06567 522.68054 213.13268C522.68054 211.19968 524.2475 209.63268 526.18054 209.63268C528.1135 209.63268 529.68054 211.19968 529.68054 213.13268Z" fill-rule="nonzero"/><path fill="#a4c2f4" clip-path="url(#id_0)" d="M575.7218 201.8434C575.7218 203.7764 574.1548 205.3434 572.2218 205.3434C570.2888 205.3434 568.7218 203.7764 568.7218 201.8434C568.7218 199.9104 570.2888 198.3434 572.2218 198.3434C574.1548 198.3434 575.7218 199.9104 575.7218 201.8434Z" fill-rule="nonzero"/><path fill="#a4c2f4" clip-path="url(#id_0)" d="M608.79376 198.93312C608.79376 200.86612 607.22675 202.43312 605.29376 202.43312C603.3607 202.43312 601.79376 200.86612 601.79376 198.93312C601.79376 197.00012 603.3607 195.43312 605.29376 195.43312C607.22675 195.43312 608.79376 197.00012 608.79376 198.93312Z" fill-rule="nonzero"/><path fill="#dc3912" clip-path="url(#id_0)" d="M95.20626 447.55313C95.20626 449.48615 93.63926 451.05313 91.70626 451.05313C89.77326 451.05313 88.20626 449.48615 88.20626 447.55313C88.20626 445.62015 89.77326 444.05313 91.70626 444.05313C93.63926 444.05313 95.20626 445.62015 95.20626 447.55313Z" fill-rule="nonzero"/><path fill="#dc3912" clip-path="url(#id_0)" d="M115.09264 446.9455C115.09264 448.87848 113.52564 450.4455 111.59264 450.4455C109.659645 450.4455 108.09264 448.87848 108.09264 446.9455C108.09264 445.0125 109.659645 443.4455 111.59264 443.4455C113.52564 443.4455 115.09264 445.0125 115.09264 446.9455Z" fill-rule="nonzero"/><path fill="#dc3912" clip-path="url(#id_0)" d="M134.97903 446.30588C134.97903 448.23886 133.41203 449.80588 131.47903 449.80588C129.54604 449.80588 127.97903 448.23886 127.97903 446.30588C127.97903 444.3729 129.54604 442.80588 131.47903 442.80588C133.41203 442.80588 134.97903 444.3729 134.97903 446.30588Z" fill-rule="nonzero"/><path fill="#dc3912" clip-path="url(#id_0)" d="M174.10333 444.96268C174.10333 446.89566 172.53633 448.46268 170.60333 448.46268C168.67033 448.46268 167.10333 446.89566 167.10333 444.96268C167.10333 443.0297 168.67033 441.46268 170.60333 441.46268C172.53633 441.46268 174.10333 443.0297 174.10333 444.96268Z" fill-rule="nonzero"/><path fill="#dc3912" clip-path="url(#id_0)" d="M220.57693 443.52353C220.57693 445.45654 219.00993 447.02353 217.07693 447.02353C215.14395 447.02353 213.57693 445.45654 213.57693 443.52353C213.57693 441.59055 215.14395 440.02353 217.07693 440.02353C219.00993 440.02353 220.57693 441.59055 220.57693 443.52353Z" fill-rule="nonzero"/><path fill="#dc3912" clip-path="url(#id_0)" d="M259.9174 441.66864C259.9174 443.60162 258.3504 445.16864 256.4174 445.16864C254.4844 445.16864 252.9174 443.60162 252.9174 441.66864C252.9174 439.73563 254.4844 438.16864 256.4174 438.16864C258.3504 438.16864 259.9174 439.73563 259.9174 441.66864Z" fill-rule="nonzero"/><path fill="#dc3912" clip-path="url(#id_0)" d="M292.98932 440.77316C292.98932 442.70618 291.4223 444.27316 289.48932 444.27316C287.55634 444.27316 285.98932 442.70618 285.98932 440.77316C285.98932 438.84018 287.55634 437.27316 289.48932 437.27316C291.4223 437.27316 292.98932 438.84018 292.98932 440.77316Z" fill-rule="nonzero"/><path fill="#dc3912" clip-path="url(#id_0)" d="M332.11362 439.78177C332.11362 441.71475 330.5466 443.28177 328.61362 443.28177C326.68063 443.28177 325.11362 441.71475 325.11362 439.78177C325.11362 437.84875 326.68063 436.28177 328.61362 436.28177C330.5466 436.28177 332.11362 437.84875 332.11362 439.78177Z" fill-rule="nonzero"/><path fill="#dc3912" clip-path="url(#id_0)" d="M371.88638 439.20612C371.88638 441.1391 370.31937 442.70612 368.38638 442.70612C366.4534 442.70612 364.88638 441.1391 364.88638 439.20612C364.88638 437.2731 366.4534 435.70612 368.38638 435.70612C370.31937 435.70612 371.88638 437.2731 371.88638 439.20612Z" fill-rule="nonzero"/><path fill="#dc3912" clip-path="url(#id_0)" d="M411.01068 437.3512C411.01068 439.2842 409.44366 440.8512 407.51068 440.8512C405.5777 440.8512 404.01068 439.2842 404.01068 437.3512C404.01068 435.4182 405.5777 433.8512 407.51068 433.8512C409.44366 433.8512 411.01068 435.4182 411.01068 437.3512Z" fill-rule="nonzero"/><path fill="#dc3912" clip-path="url(#id_0)" d="M450.78345 436.6476C450.78345 438.58063 449.21646 440.1476 447.28345 440.1476C445.35046 440.1476 443.78345 438.58063 443.78345 436.6476C443.78345 434.71463 445.35046 433.1476 447.28345 433.1476C449.21646 433.1476 450.78345 434.71463 450.78345 436.6476Z" fill-rule="nonzero"/><path fill="#dc3912" clip-path="url(#id_0)" d="M489.90775 435.4963C489.90775 437.42932 488.34076 438.9963 486.40775 438.9963C484.47476 438.9963 482.90775 437.42932 482.90775 435.4963C482.90775 433.56332 484.47476 431.9963 486.40775 431.9963C488.34076 431.9963 489.90775 433.56332 489.90775 435.4963Z" fill-rule="nonzero"/><path fill="#dc3912" clip-path="url(#id_0)" d="M529.68054 435.08057C529.68054 437.01355 528.1135 438.58057 526.18054 438.58057C524.2475 438.58057 522.68054 437.01355 522.68054 435.08057C522.68054 433.14755 524.2475 431.58057 526.18054 431.58057C528.1135 431.58057 529.68054 433.14755 529.68054 435.08057Z" fill-rule="nonzero"/><path fill="#dc3912" clip-path="url(#id_0)" d="M575.7218 434.8247C575.7218 436.75772 574.1548 438.3247 572.2218 438.3247C570.2888 438.3247 568.7218 436.75772 568.7218 434.8247C568.7218 432.89172 570.2888 431.3247 572.2218 431.3247C574.1548 431.3247 575.7218 432.89172 575.7218 434.8247Z" fill-rule="nonzero"/><path fill="#dc3912" clip-path="url(#id_0)" d="M608.79376 434.02518C608.79376 435.9582 607.22675 437.52518 605.29376 437.52518C603.3607 437.52518 601.79376 435.9582 601.79376 434.02518C601.79376 432.0922 603.3607 430.52518 605.29376 430.52518C607.22675 430.52518 608.79376 432.0922 608.79376 434.02518Z" fill-rule="nonzero"/><path fill="#d9d9d9" d="M76.89375 456.22318Q76.89375 459.06693 75.90938 460.45755Q74.94063 461.84818 72.8625 461.84818Q70.81563 461.84818 69.83125 460.4888Q68.84688 459.12943 68.81563 456.44193L68.81563 454.27005Q68.81563 451.44193 69.78438 450.08255Q70.76875 448.70755 72.84688 448.70755Q74.90938 448.70755 75.87813 450.03568Q76.8625 451.34818 76.89375 454.1138L76.89375 456.22318ZM75.26875 453.9888Q75.26875 451.9263 74.675 450.9888Q74.09688 450.03568 72.84688 450.03568Q71.59688 450.03568 71.01875 450.9888Q70.45625 451.9263 70.44063 453.8638L70.44063 456.47318Q70.44063 458.5513 71.03438 459.53568Q71.64375 460.52005 72.8625 460.52005Q74.06563 460.52005 74.64375 459.59818Q75.2375 458.66068 75.26875 456.66068L75.26875 453.9888Z" fill-rule="nonzero"/><path fill="#d9d9d9" d="M47.253124 381.72388L38.8625 381.72388L38.8625 380.552L43.3 375.63013Q44.284374 374.52075 44.64375 373.81763Q45.01875 373.1145 45.01875 372.3645Q45.01875 371.3645 44.409374 370.72388Q43.815624 370.08325 42.8 370.08325Q41.58125 370.08325 40.909374 370.78638Q40.2375 371.47388 40.2375 372.69263L38.6125 372.69263Q38.6125 370.927 39.753124 369.84888Q40.89375 368.75513 42.8 368.75513Q44.58125 368.75513 45.6125 369.69263Q46.659374 370.63013 46.659374 372.177Q46.659374 374.06763 44.253124 376.677L40.83125 380.39575L47.253124 380.39575L47.253124 381.72388ZM49.6125 375.302L50.26875 368.927L56.815624 368.927L56.815624 370.427L51.64375 370.427L51.253124 373.91138Q52.190624 373.3645 53.39375 373.3645Q55.14375 373.3645 56.159374 374.52075Q57.190624 375.677 57.190624 377.64575Q57.190624 379.63013 56.128124 380.77075Q55.065624 381.89575 53.14375 381.89575Q51.440624 381.89575 50.3625 380.95825Q49.3 380.02075 49.159374 378.3645L50.690624 378.3645Q50.846874 379.45825 51.471874 380.02075Q52.1125 380.56763 53.14375 380.56763Q54.284374 380.56763 54.925 379.802Q55.565624 379.02075 55.565624 377.66138Q55.565624 376.38013 54.8625 375.59888Q54.175 374.81763 53.01875 374.81763Q51.95625 374.81763 51.346874 375.28638L50.909374 375.64575L49.6125 375.302ZM66.89375 376.27075Q66.89375 379.1145 65.90938 380.50513Q64.94063 381.89575 62.8625 381.89575Q60.815624 381.89575 59.83125 380.53638Q58.846874 379.177 58.815624 376.4895L58.815624 374.31763Q58.815624 371.4895 59.784374 370.13013Q60.76875 368.75513 62.846874 368.75513Q64.90938 368.75513 65.87813 370.08325Q66.8625 371.39575 66.89375 374.16138L66.89375 376.27075ZM65.26875 374.03638Q65.26875 371.97388 64.675 371.03638Q64.09688 370.08325 62.846874 370.08325Q61.596874 370.08325 61.01875 371.03638Q60.45625 371.97388 60.440624 373.91138L60.440624 376.52075Q60.440624 378.59888 61.034374 379.58325Q61.64375 380.56763 62.8625 380.56763Q64.06563 380.56763 64.64375 379.64575Q65.2375 378.70825 65.26875 376.70825L65.26875 374.03638ZM76.89375 376.27075Q76.89375 379.1145 75.90938 380.50513Q74.94063 381.89575 72.8625 381.89575Q70.81563 381.89575 69.83125 380.53638Q68.84688 379.177 68.81563 376.4895L68.81563 374.31763Q68.81563 371.4895 69.78438 370.13013Q70.76875 368.75513 72.84688 368.75513Q74.90938 368.75513 75.87813 370.08325Q76.8625 371.39575 76.89375 374.16138L76.89375 376.27075ZM75.26875 374.03638Q75.26875 371.97388 74.675 371.03638Q74.09688 370.08325 72.84688 370.08325Q71.59688 370.08325 71.01875 371.03638Q70.45625 371.97388 70.44063 373.91138L70.44063 376.52075Q70.44063 378.59888 71.03438 379.58325Q71.64375 380.56763 72.8625 380.56763Q74.06563 380.56763 74.64375 379.64575Q75.2375 378.70825 75.26875 376.70825L75.26875 374.03638Z" fill-rule="nonzero"/><path fill="#d9d9d9" d="M39.6125 295.3496L40.26875 288.9746L46.815624 288.9746L46.815624 290.4746L41.64375 290.4746L41.253124 293.95898Q42.190624 293.4121 43.39375 293.4121Q45.14375 293.4121 46.159374 294.56836Q47.190624 295.7246 47.190624 297.69336Q47.190624 299.67773 46.128124 300.81836Q45.065624 301.94336 43.14375 301.94336Q41.440624 301.94336 40.3625 301.00586Q39.3 300.06836 39.159374 298.4121L40.690624 298.4121Q40.846874 299.50586 41.471874 300.06836Q42.1125 300.61523 43.14375 300.61523Q44.284374 300.61523 44.925 299.8496Q45.565624 299.06836 45.565624 297.70898Q45.565624 296.42773 44.8625 295.64648Q44.175 294.86523 43.01875 294.86523Q41.95625 294.86523 41.346874 295.33398L40.909374 295.69336L39.6125 295.3496ZM56.89375 296.31836Q56.89375 299.1621 55.909374 300.55273Q54.940624 301.94336 52.8625 301.94336Q50.815624 301.94336 49.83125 300.58398Q48.846874 299.2246 48.815624 296.5371L48.815624 294.36523Q48.815624 291.5371 49.784374 290.17773Q50.76875 288.80273 52.846874 288.80273Q54.909374 288.80273 55.878124 290.13086Q56.8625 291.44336 56.89375 294.20898L56.89375 296.31836ZM55.26875 294.08398Q55.26875 292.02148 54.675 291.08398Q54.096874 290.13086 52.846874 290.13086Q51.596874 290.13086 51.01875 291.08398Q50.45625 292.02148 50.440624 293.95898L50.440624 296.56836Q50.440624 298.64648 51.034374 299.63086Q51.64375 300.61523 52.8625 300.61523Q54.065624 300.61523 54.64375 299.69336Q55.2375 298.75586 55.26875 296.75586L55.26875 294.08398ZM66.89375 296.31836Q66.89375 299.1621 65.90938 300.55273Q64.94063 301.94336 62.8625 301.94336Q60.815624 301.94336 59.83125 300.58398Q58.846874 299.2246 58.815624 296.5371L58.815624 294.36523Q58.815624 291.5371 59.784374 290.17773Q60.76875 288.80273 62.846874 288.80273Q64.90938 288.80273 65.87813 290.13086Q66.8625 291.44336 66.89375 294.20898L66.89375 296.31836ZM65.26875 294.08398Q65.26875 292.02148 64.675 291.08398Q64.09688 290.13086 62.846874 290.13086Q61.596874 290.13086 61.01875 291.08398Q60.45625 292.02148 60.440624 293.95898L60.440624 296.56836Q60.440624 298.64648 61.034374 299.63086Q61.64375 300.61523 62.8625 300.61523Q64.06563 300.61523 64.64375 299.69336Q65.2375 298.75586 65.26875 296.75586L65.26875 294.08398ZM76.89375 296.31836Q76.89375 299.1621 75.90938 300.55273Q74.94063 301.94336 72.8625 301.94336Q70.81563 301.94336 69.83125 300.58398Q68.84688 299.2246 68.81563 296.5371L68.81563 294.36523Q68.81563 291.5371 69.78438 290.17773Q70.76875 288.80273 72.84688 288.80273Q74.90938 288.80273 75.87813 290.13086Q76.8625 291.44336 76.89375 294.20898L76.89375 296.31836ZM75.26875 294.08398Q75.26875 292.02148 74.675 291.08398Q74.09688 290.13086 72.84688 290.13086Q71.59688 290.13086 71.01875 291.08398Q70.45625 292.02148 70.44063 293.95898L70.44063 296.56836Q70.44063 298.64648 71.03438 299.63086Q71.64375 300.61523 72.8625 300.61523Q74.06563 300.61523 74.64375 299.69336Q75.2375 298.75586 75.26875 296.75586L75.26875 294.08398Z" fill-rule="nonzero"/><path fill="#d9d9d9" d="M47.128124 209.92845L41.83125 221.81908L40.128124 221.81908L45.409374 210.35033L38.471874 210.35033L38.471874 209.0222L47.128124 209.0222L47.128124 209.92845ZM49.6125 215.3972L50.26875 209.0222L56.815624 209.0222L56.815624 210.5222L51.64375 210.5222L51.253124 214.00658Q52.190624 213.4597 53.39375 213.4597Q55.14375 213.4597 56.159374 214.61595Q57.190624 215.7722 57.190624 217.74095Q57.190624 219.72533 56.128124 220.86595Q55.065624 221.99095 53.14375 221.99095Q51.440624 221.99095 50.3625 221.05345Q49.3 220.11595 49.159374 218.4597L50.690624 218.4597Q50.846874 219.55345 51.471874 220.11595Q52.1125 220.66283 53.14375 220.66283Q54.284374 220.66283 54.925 219.8972Q55.565624 219.11595 55.565624 217.75658Q55.565624 216.47533 54.8625 215.69408Q54.175 214.91283 53.01875 214.91283Q51.95625 214.91283 51.346874 215.38158L50.909374 215.74095L49.6125 215.3972ZM66.89375 216.36595Q66.89375 219.2097 65.90938 220.60033Q64.94063 221.99095 62.8625 221.99095Q60.815624 221.99095 59.83125 220.63158Q58.846874 219.2722 58.815624 216.5847L58.815624 214.41283Q58.815624 211.5847 59.784374 210.22533Q60.76875 208.85033 62.846874 208.85033Q64.90938 208.85033 65.87813 210.17845Q66.8625 211.49095 66.89375 214.25658L66.89375 216.36595ZM65.26875 214.13158Q65.26875 212.06908 64.675 211.13158Q64.09688 210.17845 62.846874 210.17845Q61.596874 210.17845 61.01875 211.13158Q60.45625 212.06908 60.440624 214.00658L60.440624 216.61595Q60.440624 218.69408 61.034374 219.67845Q61.64375 220.66283 62.8625 220.66283Q64.06563 220.66283 64.64375 219.74095Q65.2375 218.80345 65.26875 216.80345L65.26875 214.13158ZM76.89375 216.36595Q76.89375 219.2097 75.90938 220.60033Q74.94063 221.99095 72.8625 221.99095Q70.81563 221.99095 69.83125 220.63158Q68.84688 219.2722 68.81563 216.5847L68.81563 214.41283Q68.81563 211.5847 69.78438 210.22533Q70.76875 208.85033 72.84688 208.85033Q74.90938 208.85033 75.87813 210.17845Q76.8625 211.49095 76.89375 214.25658L76.89375 216.36595ZM75.26875 214.13158Q75.26875 212.06908 74.675 211.13158Q74.09688 210.17845 72.84688 210.17845Q71.59688 210.17845 71.01875 211.13158Q70.45625 212.06908 70.44063 214.00658L70.44063 216.61595Q70.44063 218.69408 71.03438 219.67845Q71.64375 220.66283 72.8625 220.66283Q74.06563 220.66283 74.64375 219.74095Q75.2375 218.80345 75.26875 216.80345L75.26875 214.13158Z" fill-rule="nonzero"/><path fill="#d9d9d9" d="M34.20625 141.86667L32.565624 141.86667L32.565624 131.02292L29.3 132.22604L29.3 130.7573L33.95625 129.0073L34.20625 129.0073L34.20625 141.86667ZM46.89375 136.41354Q46.89375 139.2573 45.909374 140.64792Q44.940624 142.03854 42.8625 142.03854Q40.815624 142.03854 39.83125 140.67917Q38.846874 139.3198 38.815624 136.6323L38.815624 134.46042Q38.815624 131.6323 39.784374 130.27292Q40.76875 128.89792 42.846874 128.89792Q44.909374 128.89792 45.878124 130.22604Q46.8625 131.53854 46.89375 134.30417L46.89375 136.41354ZM45.26875 134.17917Q45.26875 132.11667 44.675 131.17917Q44.096874 130.22604 42.846874 130.22604Q41.596874 130.22604 41.01875 131.17917Q40.45625 132.11667 40.440624 134.05417L40.440624 136.66354Q40.440624 138.74167 41.034374 139.72604Q41.64375 140.71042 42.8625 140.71042Q44.065624 140.71042 44.64375 139.78854Q45.2375 138.85104 45.26875 136.85104L45.26875 134.17917ZM56.89375 136.41354Q56.89375 139.2573 55.909374 140.64792Q54.940624 142.03854 52.8625 142.03854Q50.815624 142.03854 49.83125 140.67917Q48.846874 139.3198 48.815624 136.6323L48.815624 134.46042Q48.815624 131.6323 49.784374 130.27292Q50.76875 128.89792 52.846874 128.89792Q54.909374 128.89792 55.878124 130.22604Q56.8625 131.53854 56.89375 134.30417L56.89375 136.41354ZM55.26875 134.17917Q55.26875 132.11667 54.675 131.17917Q54.096874 130.22604 52.846874 130.22604Q51.596874 130.22604 51.01875 131.17917Q50.45625 132.11667 50.440624 134.05417L50.440624 136.66354Q50.440624 138.74167 51.034374 139.72604Q51.64375 140.71042 52.8625 140.71042Q54.065624 140.71042 54.64375 139.78854Q55.2375 138.85104 55.26875 136.85104L55.26875 134.17917ZM66.89375 136.41354Q66.89375 139.2573 65.90938 140.64792Q64.94063 142.03854 62.8625 142.03854Q60.815624 142.03854 59.83125 140.67917Q58.846874 139.3198 58.815624 136.6323L58.815624 134.46042Q58.815624 131.6323 59.784374 130.27292Q60.76875 128.89792 62.846874 128.89792Q64.90938 128.89792 65.87813 130.22604Q66.8625 131.53854 66.89375 134.30417L66.89375 136.41354ZM65.26875 134.17917Q65.26875 132.11667 64.675 131.17917Q64.09688 130.22604 62.846874 130.22604Q61.596874 130.22604 61.01875 131.17917Q60.45625 132.11667 60.440624 134.05417L60.440624 136.66354Q60.440624 138.74167 61.034374 139.72604Q61.64375 140.71042 62.8625 140.71042Q64.06563 140.71042 64.64375 139.78854Q65.2375 138.85104 65.26875 136.85104L65.26875 134.17917ZM76.89375 136.41354Q76.89375 139.2573 75.90938 140.64792Q74.94063 142.03854 72.8625 142.03854Q70.81563 142.03854 69.83125 140.67917Q68.84688 139.3198 68.81563 136.6323L68.81563 134.46042Q68.81563 131.6323 69.78438 130.27292Q70.76875 128.89792 72.84688 128.89792Q74.90938 128.89792 75.87813 130.22604Q76.8625 131.53854 76.89375 134.30417L76.89375 136.41354ZM75.26875 134.17917Q75.26875 132.11667 74.675 131.17917Q74.09688 130.22604 72.84688 130.22604Q71.59688 130.22604 71.01875 131.17917Q70.45625 132.11667 70.44063 134.05417L70.44063 136.66354Q70.44063 138.74167 71.03438 139.72604Q71.64375 140.71042 72.8625 140.71042Q74.06563 140.71042 74.64375 139.78854Q75.2375 138.85104 75.26875 136.85104L75.26875 134.17917Z" fill-rule="nonzero"/><path fill="#d9d9d9" d="M113.40176 523.01337L109.20644 530.27985L108.19157 529.6939L106.14785 523.39Q105.67929 521.9828 105.25005 521.32Q104.82863 520.6437 104.179115 520.2687Q103.31309 519.7687 102.4536 519.97614Q101.60193 520.17 101.09412 521.04956Q100.48474 522.10504 100.75773 523.03845Q101.01718 523.96405 102.072655 524.5734L101.260155 525.9807Q99.73107 525.0979 99.36771 523.57104Q98.9908 522.0364 99.943924 520.3855Q100.83455 518.8429 102.16207 518.4186Q103.49741 517.9807 104.83704 518.75415Q106.47437 519.69946 107.53104 523.088L109.04063 527.9108L112.251564 522.3493L113.40176 523.01337ZM113.49952 511.93777Q115.96228 513.3597 116.67441 514.9075Q117.39435 516.4417 116.355286 518.24146Q115.33185 520.0141 113.662415 520.1869Q111.99297 520.3597 109.6499 519.043L107.769005 517.9571Q105.31978 516.543 104.6269 515.02435Q103.9283 513.4844 104.96736 511.68466Q105.99861 509.89847 107.63317 509.72357Q109.262024 509.52734 111.672745 510.8831L113.49952 511.93777ZM110.75199 512.2279Q108.96582 511.19662 107.85704 511.2421Q106.742546 511.2662 106.117546 512.3487Q105.492546 513.4313 106.028915 514.4085Q106.55957 515.3644 108.229675 516.3467L110.48946 517.65137Q112.28917 518.6904 113.43854 518.6684Q114.595726 518.6329 115.2051 517.5774Q115.80666 516.53546 115.297356 515.57385Q114.78233 514.5909 113.0659 513.56384L110.75199 512.2279ZM121.87831 508.33154L121.058 509.75235L111.66704 504.33047L111.076164 507.76016L109.80419 507.0258L110.61677 502.11835L110.74177 501.90186L121.87831 508.33154ZM119.019936 500.43863L113.82715 496.6828L117.100586 491.01306L118.39962 491.76306L115.81368 496.24203L118.635925 498.3225Q118.63107 497.23718 119.232635 496.19522Q120.107635 494.6797 121.61679 494.37827Q123.13375 494.0633 124.838745 495.04767Q126.55726 496.03986 127.013824 497.5303Q127.45685 499.01297 126.49591 500.67737Q125.64435 502.1523 124.29339 502.61725Q122.95024 503.06863 121.44557 502.3623L122.2112 501.0362Q123.236534 501.44775 124.03618 501.18774Q124.8301 500.9064 125.345726 500.0133Q125.91604 499.02548 125.573296 498.0879Q125.217026 497.14246 124.03977 496.46277Q122.930176 495.82214 121.90203 496.04044Q120.8817 496.2452 120.30357 497.24655Q119.77232 498.16672 119.87359 498.9288L119.966064 499.4874L119.019936 500.43863ZM130.40366 495.75272L129.70053 496.97055L120.34277 485.39743L121.038086 484.1931L130.40366 495.75272ZM131.99953 479.89484Q134.46228 481.3167 135.17441 482.86453Q135.89435 484.3988 134.85529 486.1985Q133.83185 487.97116 132.16241 488.14395Q130.49297 488.31677 128.1499 487.00006L126.269005 485.91412Q123.81977 484.50006 123.12689 482.9814Q122.4283 481.44144 123.46736 479.64172Q124.49861 477.85553 126.13317 477.68063Q127.762024 477.4844 130.17274 478.84015L131.99953 479.89484ZM129.252 480.18494Q127.46582 479.1537 126.35704 479.19916Q125.242546 479.22327 124.617546 480.3058Q123.992546 481.3883 124.528915 482.36554Q125.05957 483.32144 126.729675 484.3037L128.98946 485.6084Q130.78917 486.64746 131.93854 486.62546Q133.09572 486.5899 133.7051 485.53442Q134.30666 484.4925 133.79735 483.53088Q133.28233 482.54794 131.5659 481.52087L129.252 480.18494ZM140.37831 476.28857L139.558 477.7094L130.16704 472.28754L129.57616 475.71722L128.30418 474.98285L129.11678 470.0754L129.24178 469.8589L140.37831 476.28857Z" fill-rule="nonzero"/><path fill="#d9d9d9" d="M192.29883 523.01337L188.10352 530.27985L187.08864 529.6939L185.04492 523.39Q184.57635 521.9828 184.14713 521.32Q183.7257 520.6437 183.07619 520.2687Q182.21016 519.7687 181.35068 519.97614Q180.499 520.17 179.99118 521.04956Q179.3818 522.10504 179.6548 523.03845Q179.91425 523.96405 180.96973 524.5734L180.15723 525.9807Q178.62814 525.0979 178.26477 523.57104Q177.88786 522.0364 178.84099 520.3855Q179.73161 518.8429 181.05914 518.4186Q182.39449 517.98065 183.73412 518.7541Q185.37144 519.6994 186.4281 523.088L187.9377 527.9108L191.14864 522.3493L192.29883 523.01337ZM192.39659 511.93777Q194.85934 513.3596 195.57149 514.9075Q196.29143 516.4417 195.25237 518.24146Q194.22893 520.0141 192.55948 520.1869Q190.89005 520.3597 188.54697 519.043L186.66608 517.9571Q184.21684 516.543 183.52397 515.02435Q182.82536 513.4844 183.86443 511.68466Q184.89568 509.89847 186.53024 509.72357Q188.15909 509.5273 190.56982 510.8831L192.39659 511.93777ZM189.64906 512.22784Q187.86288 511.19662 186.75412 511.24207Q185.63962 511.26617 185.01462 512.3487Q184.38962 513.4312 184.926 514.40845Q185.45663 515.3644 187.12675 516.3466L189.38654 517.6513Q191.18625 518.69037 192.33562 518.6684Q193.4928 518.6328 194.10217 517.5774Q194.70374 516.5354 194.19443 515.57385Q193.6794 514.5909 191.96298 513.5638L189.64906 512.22784ZM200.77539 508.3315L199.95508 509.75235L190.56412 504.33047L189.97324 507.76013L188.70126 507.02576L189.51384 502.11835L189.63884 501.90182L200.77539 508.3315ZM195.19507 492.37192L196.39938 493.06723L196.25095 493.32434Q195.33269 494.9773 195.7174 496.49844Q196.0886 498.01178 197.72118 499.15283Q197.21983 497.70868 198.09483 496.1931Q198.93077 494.74524 200.45917 494.47296Q201.97404 494.19287 203.5843 495.12256Q205.2893 496.10693 205.77864 497.63437Q206.26799 499.1618 205.36174 500.73148Q204.44768 502.31467 202.6517 502.61288Q200.86354 502.89758 198.92851 501.7804L198.38725 501.4679Q195.3291 499.70227 194.46883 497.47354Q193.60284 495.22348 195.05444 492.61548L195.19507 492.37192ZM199.12573 497.09503Q198.70386 497.82574 198.79884 498.69247Q198.8803 499.55142 199.397 500.15643L199.91121 500.4533Q201.27791 501.24237 202.46843 501.11783Q203.66676 500.97977 204.19801 500.0596Q204.74489 499.1124 204.36728 498.1727Q203.98395 497.21164 202.84729 496.5554Q201.6971 495.89133 200.67314 496.0399Q199.64917 496.18842 199.12573 497.09503ZM209.30072 495.7527L208.5976 496.97055L199.23984 485.3974L199.93515 484.19308L209.30072 495.7527ZM210.89659 479.89484Q213.35934 481.3167 214.07149 482.8645Q214.79143 484.39877 213.75237 486.1985Q212.72893 487.97113 211.05948 488.14395Q209.39005 488.31674 207.04697 487.00006L205.16608 485.91412Q202.71684 484.50006 202.02397 482.9814Q201.32536 481.4414 202.36443 479.64172Q203.39568 477.85553 205.03024 477.68063Q206.65909 477.48438 209.06982 478.84015L210.89659 479.89484ZM208.14906 480.18494Q206.36288 479.1537 205.25412 479.19913Q204.13962 479.22324 203.51462 480.3058Q202.88962 481.3883 203.426 482.36554Q203.95663 483.3214 205.62675 484.3037L207.88654 485.6084Q209.68625 486.64746 210.83562 486.62546Q211.9928 486.5899 212.60217 485.53442Q213.20374 484.4925 212.69443 483.53088Q212.1794 482.54794 210.46298 481.52087L208.14906 480.18494ZM219.27539 476.28857L218.45508 477.70938L209.06412 472.2875L208.47324 475.7172L207.20126 474.98282L208.01385 470.07538L208.13885 469.8589L219.27539 476.28857Z" fill-rule="nonzero"/><path fill="#d9d9d9" d="M271.41205 523.01337L267.21674 530.27985L266.20184 529.6939L264.15814 523.39Q263.68958 521.98285 263.26035 521.32Q262.83893 520.6437 262.1894 520.2687Q261.32336 519.7687 260.4639 519.97614Q259.6122 520.17004 259.1044 521.04956Q258.49503 522.10504 258.768 523.03845Q259.02747 523.96405 260.08295 524.5734L259.27045 525.9808Q257.74136 525.09796 257.378 523.57104Q257.0011 522.0364 257.95422 520.3855Q258.84485 518.8429 260.17236 518.4186Q261.5077 517.9807 262.84732 518.75415Q264.48465 519.69946 265.54132 523.088L267.0509 527.9108L270.26184 522.3493L271.41205 523.01337ZM271.5098 511.93777Q273.97256 513.3597 274.6847 514.9075Q275.40463 516.4417 274.36557 518.24146Q273.34213 520.0141 271.6727 520.1869Q270.00327 520.3597 267.6602 519.043L265.7793 517.9571Q263.33005 516.543 262.63718 515.02435Q261.9386 513.4844 262.97766 511.68466Q264.0089 509.8985 265.64346 509.72357Q267.2723 509.52734 269.68304 510.8831L271.5098 511.93777ZM268.76227 512.2279Q266.9761 511.19662 265.86734 511.2421Q264.75284 511.2662 264.12784 512.34875Q263.50284 513.4313 264.0392 514.4085Q264.56985 515.3644 266.23996 516.3467L268.49976 517.65137Q270.29947 518.6904 271.44882 518.6684Q272.60602 518.6329 273.2154 517.5774Q273.81696 516.53546 273.30765 515.57385Q272.7926 514.5909 271.0762 513.56384L268.76227 512.2279ZM279.8886 508.33154L279.0683 509.75235L269.67734 504.33047L269.08646 507.76016L267.81448 507.0258L268.62704 502.11835L268.75204 501.90186L279.8886 508.33154ZM276.05194 491.19556L283.7011 501.7281L282.84955 503.20303L275.55792 492.89496L272.08917 498.903L270.939 498.23895L275.26712 490.74243L276.05194 491.19556ZM288.41394 495.75272L287.71082 496.97055L278.35306 485.39743L279.04837 484.1931L288.41394 495.75272ZM290.0098 479.89484Q292.47256 481.3167 293.1847 482.86453Q293.90463 484.3988 292.86557 486.19852Q291.84213 487.97116 290.1727 488.14395Q288.50327 488.31677 286.1602 487.0001L284.2793 485.91415Q281.83005 484.5001 281.13718 482.9814Q280.4386 481.44144 281.47766 479.64172Q282.5089 477.85556 284.14346 477.68063Q285.7723 477.4844 288.18304 478.84015L290.0098 479.89484ZM287.26227 480.18494Q285.4761 479.1537 284.36734 479.19916Q283.25284 479.22327 282.62784 480.3058Q282.00284 481.3883 282.5392 482.36554Q283.06985 483.32144 284.73996 484.3037L286.99976 485.6084Q288.79947 486.64746 289.94882 486.62546Q291.10602 486.5899 291.7154 485.53445Q292.31696 484.4925 291.80765 483.53088Q291.2926 482.54794 289.5762 481.52087L287.26227 480.18494ZM298.3886 476.2886L297.5683 477.7094L288.17734 472.28754L287.58646 475.71722L286.31448 474.98285L287.12704 470.0754L287.25204 469.85892L298.3886 476.2886Z" fill-rule="nonzero"/><path fill="#d9d9d9" d="M350.3091 523.01337L346.1138 530.27985L345.0989 529.6939L343.0552 523.39Q342.58664 521.98285 342.1574 521.32Q341.736 520.64374 341.08646 520.26874Q340.22043 519.76874 339.36096 519.97614Q338.50928 520.17004 338.00146 521.04956Q337.3921 522.10504 337.66507 523.03845Q337.92453 523.96405 338.98 524.5734L338.1675 525.9808Q336.63843 525.09796 336.27505 523.57104Q335.89816 522.0364 336.8513 520.3855Q337.7419 518.8429 339.06943 518.4186Q340.40475 517.9807 341.7444 518.75415Q343.3817 519.69946 344.4384 523.088L345.94797 527.9108L349.1589 522.3493L350.3091 523.01337ZM350.40686 511.93777Q352.86963 513.3597 353.58176 514.9075Q354.3017 516.4417 353.26263 518.24146Q352.2392 520.0141 350.56976 520.1869Q348.90033 520.3597 346.55725 519.043L344.67636 517.9571Q342.2271 516.543 341.53424 515.02435Q340.83566 513.4844 341.87473 511.68466Q342.90598 509.8985 344.54053 509.7236Q346.16937 509.52734 348.5801 510.8831L350.40686 511.93777ZM347.65933 512.2279Q345.87317 511.19662 344.7644 511.2421Q343.6499 511.2662 343.0249 512.34875Q342.3999 513.4313 342.93628 514.4085Q343.46692 515.3644 345.13702 516.3467L347.39682 517.65137Q349.19653 518.6904 350.3459 518.6684Q351.50308 518.6329 352.11246 517.5774Q352.71402 516.53546 352.2047 515.57385Q351.6897 514.5909 349.97327 513.56384L347.65933 512.2279ZM358.78568 508.33154L357.96536 509.75235L348.5744 504.33047L347.98352 507.76016L346.71155 507.0258L347.5241 502.11835L347.6491 501.90186L358.78568 508.33154ZM356.80997 492.84732Q357.63538 493.32388 358.0271 494.14542Q358.4266 494.95343 358.36227 495.9086Q359.22763 495.2535 360.2339 495.1669Q361.24792 495.06677 362.15454 495.5902Q363.5889 496.41833 363.8789 497.8848Q364.16888 499.35126 363.25482 500.93448Q362.33295 502.53122 360.92578 502.99976Q359.5186 503.46832 358.08423 502.6402Q357.19113 502.12457 356.75522 501.22336Q356.31357 500.3008 356.4347 499.21606Q355.63965 499.74936 354.7401 499.80737Q353.84842 499.85184 353.03653 499.3831Q351.62924 498.5706 351.33295 497.20877Q351.03098 495.82556 351.87473 494.36417Q352.71848 492.90274 354.06732 492.4727Q355.40268 492.03482 356.80997 492.84732ZM361.31497 496.98187Q360.3813 496.4428 359.4557 496.70227Q358.52435 496.94037 357.96967 497.90112Q357.4228 498.84833 357.66873 499.76614Q357.92245 500.6704 358.86966 501.2173Q359.80334 501.75635 360.66495 501.51404Q361.53433 501.2582 362.10464 500.27042Q362.68277 499.26907 362.46182 498.40176Q362.24866 497.52094 361.31497 496.98187ZM353.0249 495.02823Q352.54834 495.85364 352.76566 496.66473Q352.983 497.4758 353.86255 497.9836Q354.71506 498.4758 355.53183 498.27982Q356.34293 498.0625 356.8273 497.22354Q357.3195 496.37103 357.09433 495.5735Q356.8635 494.7546 356.0245 494.27023Q355.17203 493.77805 354.3396 494.0011Q353.49365 494.2163 353.0249 495.02823ZM367.311 495.75272L366.60788 496.97055L357.25012 485.39743L357.94543 484.1931L367.311 495.75272ZM368.90686 479.89484Q371.36963 481.3167 372.08176 482.86453Q372.8017 484.3988 371.76263 486.19852Q370.7392 487.97116 369.06976 488.14395Q367.40033 488.31677 365.05725 487.0001L363.17636 485.91415Q360.7271 484.5001 360.03424 482.9814Q359.33566 481.44144 360.37473 479.64172Q361.40598 477.85556 363.04053 477.68063Q364.66937 477.4844 367.0801 478.84015L368.90686 479.89484ZM366.15933 480.18494Q364.37317 479.1537 363.2644 479.19916Q362.1499 479.22327 361.5249 480.3058Q360.8999 481.3883 361.43628 482.36554Q361.96692 483.32144 363.63702 484.3037L365.89682 485.6084Q367.69653 486.64746 368.8459 486.62546Q370.00308 486.5899 370.61246 485.53445Q371.21402 484.4925 370.7047 483.53088Q370.1897 482.54794 368.47327 481.52087L366.15933 480.18494ZM377.28568 476.2886L376.46536 477.7094L367.0744 472.28754L366.48352 475.71722L365.21155 474.98285L366.0241 470.0754L366.1491 469.85892L377.28568 476.2886Z" fill-rule="nonzero"/><path fill="#d9d9d9" d="M429.20618 523.01337L425.01086 530.27985L423.99597 529.6939L421.95227 523.39Q421.4837 521.98285 421.05447 521.32Q420.63306 520.64374 419.98352 520.26874Q419.1175 519.76874 418.25803 519.97614Q417.40634 520.17004 416.89853 521.04956Q416.28915 522.10504 416.56213 523.03845Q416.8216 523.9641 417.87708 524.5735L417.06458 525.9808Q415.5355 525.09796 415.17212 523.57104Q414.79523 522.0364 415.74835 520.3855Q416.63898 518.8429 417.9665 518.4186Q419.30182 517.9807 420.64145 518.75415Q422.27878 519.69946 423.33545 523.088L424.84503 527.9108L428.05597 522.3493L429.20618 523.01337ZM429.30392 511.93777Q431.7667 513.3597 432.47882 514.9075Q433.19876 516.4417 432.1597 518.24146Q431.13626 520.0141 429.46683 520.1869Q427.7974 520.3597 425.4543 519.043L423.57343 517.9571Q421.12418 516.543 420.4313 515.02435Q419.73273 513.4844 420.7718 511.68466Q421.80304 509.8985 423.4376 509.7236Q425.06644 509.52734 427.47717 510.8831L429.30392 511.93777ZM426.5564 512.2279Q424.77023 511.19662 423.66147 511.2421Q422.54697 511.2662 421.92197 512.34875Q421.29697 513.4313 421.83334 514.4085Q422.36398 515.3644 424.0341 516.3467L426.29388 517.65137Q428.0936 518.6904 429.24295 518.6684Q430.40015 518.6329 431.00952 517.5774Q431.61108 516.53546 431.10178 515.57385Q430.58676 514.5909 428.87033 513.56384L426.5564 512.2279ZM437.68274 508.33154L436.86243 509.75235L427.47147 504.33047L426.88058 507.76016L425.6086 507.0258L426.42117 502.11835L426.54617 501.90186L437.68274 508.33154ZM438.25665 496.08746Q438.52658 496.8387 438.49976 497.63513Q438.45944 498.42374 438.03757 499.15445Q437.48288 500.1152 436.5952 500.55893Q435.71533 500.98914 434.6363 500.88937Q433.55722 500.7896 432.5153 500.18805Q431.4057 499.54742 430.7548 498.6123Q430.11172 497.66367 430.09695 496.62674Q430.06866 495.582 430.67023 494.54007Q431.61554 492.90274 433.39377 492.66647Q435.16632 492.40884 437.29077 493.6354L437.71027 493.8776Q440.94434 495.74478 441.6906 497.88965Q442.44473 500.021 440.99313 502.629L440.83688 502.89963L439.6461 502.21213L439.81796 501.91443Q440.79092 500.16675 440.4504 498.72525Q440.11774 497.27023 438.25665 496.08746ZM437.00665 498.25253Q437.4129 497.5489 437.32364 496.7035Q437.23438 495.85812 436.75464 495.22028L436.1863 494.89215Q434.8061 494.09528 433.5963 494.19067Q432.373 494.27826 431.84174 495.19843Q431.30267 496.1321 431.69174 497.1145Q432.0886 498.08334 433.25232 498.75522Q434.37546 499.40366 435.4322 499.29208Q436.4754 499.1727 437.00665 498.25253ZM446.20807 495.75272L445.50494 496.97055L436.1472 485.39743L436.8425 484.1931L446.20807 495.75272ZM447.80392 479.89484Q450.2667 481.3167 450.97882 482.86453Q451.69876 484.3988 450.6597 486.19852Q449.63626 487.97116 447.96683 488.14395Q446.2974 488.31677 443.9543 487.0001L442.07343 485.91415Q439.62418 484.5001 438.9313 482.98145Q438.23273 481.44144 439.2718 479.64172Q440.30304 477.85556 441.9376 477.68066Q443.56644 477.4844 445.97717 478.84015L447.80392 479.89484ZM445.0564 480.18494Q443.27023 479.1537 442.16147 479.19916Q441.04697 479.22327 440.42197 480.3058Q439.79697 481.38834 440.33334 482.36557Q440.86398 483.32144 442.5341 484.3037L444.79388 485.6084Q446.5936 486.64746 447.74295 486.62546Q448.90015 486.5899 449.50952 485.53445Q450.11108 484.49252 449.60178 483.5309Q449.08676 482.54794 447.37033 481.52087L445.0564 480.18494ZM456.18274 476.2886L455.36243 477.7094L445.97147 472.28754L445.38058 475.71722L444.1086 474.98285L444.92117 470.0754L445.04617 469.85892L456.18274 476.2886Z" fill-rule="nonzero"/><path fill="#d9d9d9" d="M508.10324 523.01337L503.90793 530.27985L502.89307 529.6939L500.84933 523.39Q500.38077 521.98285 499.95154 521.32Q499.53012 520.64374 498.88058 520.26874Q498.01456 519.76874 497.1551 519.97614Q496.3034 520.17004 495.7956 521.04956Q495.18622 522.10504 495.4592 523.03845Q495.71866 523.9641 496.77414 524.5735L495.96164 525.9807Q494.43256 525.0979 494.06918 523.57104Q493.6923 522.0364 494.64542 520.3855Q495.53604 518.8429 496.86356 518.4186Q498.19888 517.9807 499.5385 518.75415Q501.17584 519.69946 502.2325 523.088L503.7421 527.9108L506.95303 522.3493L508.10324 523.01337ZM508.201 511.93777Q510.66376 513.3597 511.3759 514.9075Q512.0958 516.4417 511.05676 518.24146Q510.03333 520.0141 508.3639 520.1869Q506.69446 520.3597 504.35138 519.043L502.4705 517.9571Q500.02124 516.543 499.32837 515.02435Q498.6298 513.4844 499.66885 511.68466Q500.7001 509.8985 502.33466 509.7236Q503.9635 509.52734 506.37424 510.8831L508.201 511.93777ZM505.45346 512.2279Q503.6673 511.19662 502.55853 511.2421Q501.44403 511.2662 500.81903 512.34875Q500.19403 513.4313 500.7304 514.4085Q501.26105 515.3644 502.93115 516.3467L505.19095 517.65137Q506.99066 518.6904 508.14 518.6684Q509.2972 518.6329 509.9066 517.5774Q510.50815 516.53546 509.99884 515.57385Q509.48383 514.5909 507.7674 513.56384L505.45346 512.2279ZM518.1032 505.69287L513.9079 512.95935L512.89307 512.3734L510.84933 506.0695Q510.38077 504.66232 509.95154 503.9995Q509.53012 503.3232 508.88058 502.9482Q508.01456 502.4482 507.1551 502.65564Q506.3034 502.84952 505.7956 503.72906Q505.18622 504.78455 505.4592 505.71796Q505.71866 506.6436 506.77414 507.25296L505.96164 508.66025Q504.43256 507.77744 504.06918 506.25055Q503.6923 504.71588 504.64542 503.065Q505.53604 501.5224 506.86356 501.09805Q508.19888 500.6602 509.5385 501.43362Q511.17584 502.37894 512.2325 505.76752L513.7421 510.5903L516.95306 505.0288L518.1032 505.69287ZM518.201 494.61728Q520.66376 496.03915 521.3759 497.58694Q522.0958 499.12125 521.05676 500.92093Q520.0333 502.69357 518.3639 502.8664Q516.69446 503.0392 514.3514 501.7225L512.47046 500.63657Q510.02124 499.2225 509.32837 497.70386Q508.6298 496.16388 509.66885 494.36417Q510.7001 492.57797 512.33466 492.40308Q513.9635 492.20685 516.3742 493.5626L518.201 494.61728ZM515.4535 494.90738Q513.6673 493.87613 512.55853 493.92157Q511.44403 493.94568 510.81903 495.02823Q510.19403 496.11075 510.7304 497.08798Q511.26105 498.04388 512.93115 499.02615L515.1909 500.33084Q516.99066 501.3699 518.14 501.3479Q519.2972 501.31235 519.90656 500.25687Q520.5081 499.21494 519.99884 498.25333Q519.4838 497.2704 517.7674 496.24332L515.4535 494.90738ZM525.10516 495.75272L524.40204 496.97055L515.04425 485.39743L515.73956 484.1931L525.10516 495.75272ZM526.701 479.89484Q529.16376 481.3167 529.8759 482.86453Q530.5958 484.3988 529.55676 486.19852Q528.5333 487.97116 526.8639 488.14395Q525.19446 488.31677 522.8514 487.0001L520.97046 485.91415Q518.52124 484.5001 517.82837 482.98145Q517.12976 481.44144 518.1688 479.64172Q519.2001 477.85556 520.83466 477.68066Q522.4635 477.4844 524.8742 478.84015L526.701 479.89484ZM523.9535 480.18494Q522.1673 479.1537 521.05853 479.19916Q519.94403 479.22327 519.31903 480.3058Q518.69403 481.38834 519.2304 482.36557Q519.76105 483.32144 521.43115 484.30374L523.6909 485.60843Q525.49066 486.6475 526.64 486.62546Q527.7972 486.5899 528.40656 485.53445Q529.0081 484.49252 528.49884 483.5309Q527.9838 482.54794 526.2674 481.52087L523.9535 480.18494ZM535.0798 476.2886L534.25946 477.7094L524.8685 472.28754L524.27765 475.71722L523.0057 474.98285L523.81824 470.0754L523.94324 469.85892L535.0798 476.2886Z" fill-rule="nonzero"/><path fill="#d9d9d9" d="M587.21643 523.01337L583.0211 530.27985L582.0063 529.6939L579.9625 523.39Q579.494 521.98285 579.06476 521.32Q578.6433 520.64374 577.99384 520.26874Q577.1278 519.76874 576.2683 519.97614Q575.4166 520.17004 574.9088 521.04956Q574.29944 522.10504 574.57245 523.03845Q574.8319 523.9641 575.8873 524.5735L575.0748 525.9808Q573.5458 525.09796 573.1824 523.57104Q572.8055 522.0364 573.7586 520.3855Q574.64923 518.8429 575.97675 518.4186Q577.31213 517.9807 578.65173 518.75415Q580.28906 519.69946 581.3457 523.088L582.85535 527.9108L586.0663 522.3493L587.21643 523.01337ZM587.3142 511.93777Q589.777 513.3597 590.48914 514.9075Q591.20905 516.4418 590.17 518.24146Q589.14655 520.0141 587.4771 520.1869Q585.8077 520.3597 583.4646 519.043L581.5837 517.9571Q579.13446 516.543 578.4416 515.02435Q577.743 513.4844 578.78204 511.68466Q579.8133 509.8985 581.4479 509.7236Q583.0767 509.52734 585.4874 510.8831L587.3142 511.93777ZM584.5667 512.2279Q582.7805 511.19666 581.67175 511.2421Q580.55725 511.2662 579.93225 512.34875Q579.30725 513.4313 579.8436 514.4085Q580.37427 515.3644 582.0444 516.3467L584.30414 517.65137Q586.1039 518.6904 587.25323 518.6684Q588.4104 518.6329 589.0198 517.5774Q589.62134 516.53546 589.11206 515.57385Q588.59705 514.5909 586.8806 513.56384L584.5667 512.2279ZM597.21643 505.69287L593.0211 512.95935L592.0063 512.3734L589.9625 506.0695Q589.494 504.66232 589.06476 503.99954Q588.6433 503.3232 587.99384 502.9482Q587.1278 502.4482 586.2683 502.65564Q585.4166 502.84952 584.9088 503.72906Q584.29944 504.78455 584.57245 505.71796Q584.8319 506.6436 585.8873 507.25296L585.0748 508.66025Q583.5458 507.77744 583.1824 506.25055Q582.8055 504.71588 583.7586 503.065Q584.64923 501.5224 585.97675 501.09805Q587.31213 500.6602 588.65173 501.43362Q590.28906 502.37894 591.3457 505.76752L592.85535 510.5903L596.0663 505.0288L597.21643 505.69287ZM600.693 499.6713L599.8727 501.0921L590.48175 495.67023L589.89087 499.0999L588.6189 498.36554L589.43146 493.4581L589.55646 493.2416L600.693 499.6713ZM604.2184 495.75272L603.51526 496.97055L594.1575 485.39743L594.8528 484.1931L604.2184 495.75272ZM605.8142 479.89484Q608.277 481.3167 608.98914 482.86453Q609.70905 484.3988 608.67 486.19852Q607.64655 487.97116 605.9771 488.14395Q604.3077 488.31677 601.9646 487.0001L600.0837 485.91415Q597.63446 484.5001 596.9416 482.98145Q596.243 481.44144 597.28204 479.64172Q598.3133 477.85556 599.9479 477.68066Q601.5767 477.4844 603.9874 478.84015L605.8142 479.89484ZM603.0667 480.18494Q601.2805 479.1537 600.17175 479.19916Q599.05725 479.22327 598.43225 480.3058Q597.80725 481.38834 598.3436 482.36557Q598.87427 483.32144 600.5444 484.30374L602.80414 485.60843Q604.6039 486.6475 605.75323 486.62546Q606.9104 486.5899 607.5198 485.53445Q608.12134 484.49252 607.61206 483.5309Q607.09705 482.54794 605.3806 481.52087L603.0667 480.18494ZM614.193 476.2886L613.3727 477.7094L603.98175 472.28754L603.39087 475.71722L602.1189 474.98285L602.93146 470.0754L603.05646 469.85892L614.193 476.2886Z" fill-rule="nonzero"/><path fill="#a4c2f4" d="M186.0 94.333336C186.0 97.64704 183.3137 100.333336 180.0 100.333336C176.6863 100.333336 174.0 97.64704 174.0 94.333336C174.0 91.01962 176.6863 88.333336 180.0 88.333336C183.3137 88.333336 186.0 91.01962 186.0 94.333336Z" fill-rule="nonzero"/><path fill="#d9d9d9" d="M200.35938 98.84896L204.42188 87.114586L206.46875 87.114586L201.20312 101.333336L199.53125 101.333336L194.28125 87.114586L196.3125 87.114586L200.35938 98.84896ZM214.89062 101.333336Q214.73438 101.020836 214.64062 100.22396Q213.375 101.53646 211.625 101.53646Q210.0625 101.53646 209.0625 100.645836Q208.0625 99.75521 208.0625 98.395836Q208.0625 96.75521 209.3125 95.84896Q210.57812 94.927086 212.84375 94.927086L214.60938 94.927086L214.60938 94.09896Q214.60938 93.145836 214.03125 92.583336Q213.46875 92.020836 212.375 92.020836Q211.40625 92.020836 210.75 92.520836Q210.09375 93.00521 210.09375 93.69271L208.28125 93.69271Q208.28125 92.91146 208.84375 92.177086Q209.40625 91.427086 210.35938 91.00521Q211.32812 90.56771 212.48438 90.56771Q214.3125 90.56771 215.34375 91.489586Q216.375 92.395836 216.42188 94.00521L216.42188 98.864586Q216.42188 100.31771 216.78125 101.177086L216.78125 101.333336L214.89062 101.333336ZM211.89062 99.958336Q212.75 99.958336 213.5 99.520836Q214.26562 99.083336 214.60938 98.38021L214.60938 96.208336L213.1875 96.208336Q209.875 96.208336 209.875 98.145836Q209.875 99.00521 210.4375 99.489586Q211.0 99.958336 211.89062 99.958336ZM221.32812 101.333336L219.53125 101.333336L219.53125 86.333336L221.32812 86.333336L221.32812 101.333336ZM226.32812 101.333336L224.53125 101.333336L224.53125 90.770836L226.32812 90.770836L226.32812 101.333336ZM224.375 87.958336Q224.375 87.520836 224.64062 87.22396Q224.92188 86.91146 225.4375 86.91146Q225.96875 86.91146 226.23438 87.22396Q226.51562 87.520836 226.51562 87.958336Q226.51562 88.395836 226.23438 88.69271Q225.96875 88.989586 225.4375 88.989586Q224.92188 88.989586 224.64062 88.69271Q224.375 88.395836 224.375 87.958336ZM228.92188 95.958336Q228.92188 93.53646 230.07812 92.052086Q231.23438 90.56771 233.09375 90.56771Q234.95312 90.56771 236.03125 91.833336L236.03125 86.333336L237.84375 86.333336L237.84375 101.333336L236.1875 101.333336L236.09375 100.19271Q235.01562 101.53646 233.07812 101.53646Q231.25 101.53646 230.07812 100.03646Q228.92188 98.520836 228.92188 96.09896L228.92188 95.958336ZM230.73438 96.16146Q230.73438 97.958336 231.46875 98.97396Q232.21875 99.989586 233.53125 99.989586Q235.25 99.989586 236.03125 98.458336L236.03125 93.59896Q235.23438 92.09896 233.54688 92.09896Q232.21875 92.09896 231.46875 93.13021Q230.73438 94.16146 230.73438 96.16146ZM255.46875 88.66146L250.90625 88.66146L250.90625 101.333336L249.04688 101.333336L249.04688 88.66146L244.48438 88.66146L244.48438 87.114586L255.46875 87.114586L255.46875 88.66146ZM256.89062 95.958336Q256.89062 94.395836 257.5 93.16146Q258.10938 91.91146 259.1875 91.239586Q260.28125 90.56771 261.6875 90.56771Q263.84375 90.56771 265.17188 92.06771Q266.51562 93.552086 266.51562 96.03646L266.51562 96.16146Q266.51562 97.708336 265.92188 98.94271Q265.32812 100.16146 264.21875 100.84896Q263.125 101.53646 261.70312 101.53646Q259.5625 101.53646 258.21875 100.03646Q256.89062 98.53646 256.89062 96.083336L256.89062 95.958336ZM258.70312 96.16146Q258.70312 97.927086 259.51562 98.989586Q260.34375 100.052086 261.70312 100.052086Q263.07812 100.052086 263.89062 98.97396Q264.70312 97.895836 264.70312 95.958336Q264.70312 94.208336 263.875 93.13021Q263.04688 92.052086 261.6875 92.052086Q260.34375 92.052086 259.51562 93.114586Q258.70312 94.177086 258.70312 96.16146ZM267.89062 95.958336Q267.89062 94.395836 268.5 93.16146Q269.10938 91.91146 270.1875 91.239586Q271.28125 90.56771 272.6875 90.56771Q274.84375 90.56771 276.17188 92.06771Q277.51562 93.552086 277.51562 96.03646L277.51562 96.16146Q277.51562 97.708336 276.92188 98.94271Q276.32812 100.16146 275.21875 100.84896Q274.125 101.53646 272.70312 101.53646Q270.5625 101.53646 269.21875 100.03646Q267.89062 98.53646 267.89062 96.083336L267.89062 95.958336ZM269.70312 96.16146Q269.70312 97.927086 270.51562 98.989586Q271.34375 100.052086 272.70312 100.052086Q274.07812 100.052086 274.89062 98.97396Q275.70312 97.895836 275.70312 95.958336Q275.70312 94.208336 274.875 93.13021Q274.04688 92.052086 272.6875 92.052086Q271.34375 92.052086 270.51562 93.114586Q269.70312 94.177086 269.70312 96.16146ZM281.32812 101.333336L279.53125 101.333336L279.53125 86.333336L281.32812 86.333336L281.32812 101.333336ZM290.51562 98.53646Q290.51562 97.802086 289.96875 97.395836Q289.42188 96.989586 288.04688 96.69271Q286.67188 96.395836 285.85938 95.989586Q285.0625 95.583336 284.67188 95.020836Q284.29688 94.44271 284.29688 93.66146Q284.29688 92.364586 285.39062 91.47396Q286.48438 90.56771 288.20312 90.56771Q290.0 90.56771 291.10938 91.50521Q292.23438 92.427086 292.23438 93.864586L290.40625 93.864586Q290.40625 93.13021 289.78125 92.59896Q289.15625 92.052086 288.20312 92.052086Q287.20312 92.052086 286.64062 92.489586Q286.09375 92.91146 286.09375 93.614586Q286.09375 94.25521 286.60938 94.59896Q287.125 94.927086 288.48438 95.239586Q289.84375 95.53646 290.67188 95.958336Q291.51562 96.364586 291.92188 96.958336Q292.32812 97.552086 292.32812 98.395836Q292.32812 99.81771 291.1875 100.677086Q290.0625 101.53646 288.25 101.53646Q286.98438 101.53646 286.0 101.083336Q285.03125 100.63021 284.46875 99.833336Q283.92188 99.020836 283.92188 98.083336L285.73438 98.083336Q285.78125 98.989586 286.45312 99.520836Q287.14062 100.052086 288.25 100.052086Q289.28125 100.052086 289.89062 99.645836Q290.51562 99.22396 290.51562 98.53646Z" fill-rule="nonzero"/><path fill="#dc3912" d="M321.0 94.333336C321.0 97.64704 318.31372 100.333336 315.0 100.333336C311.68628 100.333336 309.0 97.64704 309.0 94.333336C309.0 91.01962 311.68628 88.333336 315.0 88.333336C318.31372 88.333336 321.0 91.01962 321.0 94.333336Z" fill-rule="nonzero"/><path fill="#d9d9d9" d="M340.65625 87.114586L340.65625 96.78646Q340.65625 98.78646 339.39062 100.06771Q338.14062 101.34896 336.0 101.50521L335.5 101.53646Q333.15625 101.53646 331.76562 100.270836Q330.39062 99.00521 330.375 96.802086L330.375 87.114586L332.21875 87.114586L332.21875 96.739586Q332.21875 98.28646 333.0625 99.145836Q333.92188 99.989586 335.5 99.989586Q337.09375 99.989586 337.9375 99.145836Q338.78125 98.302086 338.78125 96.75521L338.78125 87.114586L340.65625 87.114586ZM345.07812 90.770836L345.14062 92.09896Q346.34375 90.56771 348.29688 90.56771Q351.65625 90.56771 351.67188 94.34896L351.67188 101.333336L349.875 101.333336L349.875 94.333336Q349.85938 93.19271 349.34375 92.645836Q348.84375 92.09896 347.75 92.09896Q346.875 92.09896 346.20312 92.56771Q345.54688 93.03646 345.17188 93.802086L345.17188 101.333336L343.375 101.333336L343.375 90.770836L345.07812 90.770836ZM356.32812 101.333336L354.53125 101.333336L354.53125 90.770836L356.32812 90.770836L356.32812 101.333336ZM354.375 87.958336Q354.375 87.520836 354.64062 87.22396Q354.92188 86.91146 355.4375 86.91146Q355.96875 86.91146 356.23438 87.22396Q356.51562 87.520836 356.51562 87.958336Q356.51562 88.395836 356.23438 88.69271Q355.96875 88.989586 355.4375 88.989586Q354.92188 88.989586 354.64062 88.69271Q354.375 88.395836 354.375 87.958336ZM358.92188 95.958336Q358.92188 93.47396 360.0625 92.020836Q361.21875 90.56771 363.14062 90.56771Q365.01562 90.56771 366.09375 91.833336L366.17188 90.770836L367.82812 90.770836L367.82812 105.395836L366.03125 105.395836L366.03125 100.34896Q364.9375 101.53646 363.125 101.53646Q361.20312 101.53646 360.0625 100.052086Q358.92188 98.552086 358.92188 96.083336L358.92188 95.958336ZM360.73438 96.16146Q360.73438 97.989586 361.5 99.020836Q362.26562 100.052086 363.5625 100.052086Q365.17188 100.052086 366.03125 98.63021L366.03125 93.458336Q365.17188 92.052086 363.59375 92.052086Q362.28125 92.052086 361.5 93.09896Q360.73438 94.13021 360.73438 96.16146ZM376.89062 100.28646Q375.84375 101.53646 373.79688 101.53646Q372.10938 101.53646 371.21875 100.552086Q370.34375 99.56771 370.32812 97.645836L370.32812 90.770836L372.14062 90.770836L372.14062 97.59896Q372.14062 99.989586 374.09375 99.989586Q376.15625 99.989586 376.84375 98.458336L376.84375 90.770836L378.65625 90.770836L378.65625 101.333336L376.9375 101.333336L376.89062 100.28646ZM385.75 101.53646Q383.60938 101.53646 382.25 100.13021Q380.90625 98.708336 380.90625 96.34896L380.90625 96.00521Q380.90625 94.44271 381.5 93.208336Q382.10938 91.97396 383.1875 91.270836Q384.26562 90.56771 385.53125 90.56771Q387.59375 90.56771 388.73438 91.927086Q389.875 93.28646 389.875 95.81771L389.875 96.56771L382.71875 96.56771Q382.75 98.13021 383.625 99.09896Q384.5 100.052086 385.84375 100.052086Q386.8125 100.052086 387.46875 99.66146Q388.14062 99.270836 388.64062 98.63021L389.73438 99.489586Q388.40625 101.53646 385.75 101.53646ZM385.53125 92.052086Q384.4375 92.052086 383.6875 92.84896Q382.95312 93.645836 382.78125 95.083336L388.0625 95.083336L388.0625 94.94271Q387.98438 93.56771 387.3125 92.81771Q386.65625 92.052086 385.53125 92.052086ZM408.59375 94.677086Q408.59375 96.770836 407.89062 98.333336Q407.1875 99.88021 405.89062 100.708336Q404.60938 101.53646 402.89062 101.53646Q401.20312 101.53646 399.90625 100.708336Q398.60938 99.88021 397.89062 98.34896Q397.17188 96.81771 397.15625 94.802086L397.15625 93.78646Q397.15625 91.739586 397.85938 90.16146Q398.57812 88.583336 399.875 87.75521Q401.1875 86.91146 402.85938 86.91146Q404.57812 86.91146 405.875 87.739586Q407.1875 88.56771 407.89062 90.145836Q408.59375 91.708336 408.59375 93.78646L408.59375 94.677086ZM406.71875 93.770836Q406.71875 91.239586 405.70312 89.895836Q404.6875 88.53646 402.85938 88.53646Q401.09375 88.53646 400.0625 89.895836Q399.04688 91.239586 399.01562 93.63021L399.01562 94.677086Q399.01562 97.13021 400.04688 98.53646Q401.07812 99.94271 402.89062 99.94271Q404.70312 99.94271 405.6875 98.614586Q406.6875 97.28646 406.71875 94.81771L406.71875 93.770836ZM420.71875 98.84896L422.75 90.770836L424.5625 90.770836L421.48438 101.333336L420.01562 101.333336L417.45312 93.31771L414.95312 101.333336L413.48438 101.333336L410.42188 90.770836L412.21875 90.770836L414.29688 98.677086L416.76562 90.770836L418.21875 90.770836L420.71875 98.84896ZM428.07812 90.770836L428.14062 92.09896Q429.34375 90.56771 431.29688 90.56771Q434.65625 90.56771 434.67188 94.34896L434.67188 101.333336L432.875 101.333336L432.875 94.333336Q432.85938 93.19271 432.34375 92.645836Q431.84375 92.09896 430.75 92.09896Q429.875 92.09896 429.20312 92.56771Q428.54688 93.03646 428.17188 93.802086L428.17188 101.333336L426.375 101.333336L426.375 90.770836L428.07812 90.770836ZM441.75 101.53646Q439.60938 101.53646 438.25 100.13021Q436.90625 98.708336 436.90625 96.34896L436.90625 96.00521Q436.90625 94.44271 437.5 93.208336Q438.10938 91.97396 439.1875 91.270836Q440.26562 90.56771 441.53125 90.56771Q443.59375 90.56771 444.73438 91.927086Q445.875 93.28646 445.875 95.81771L445.875 96.56771L438.71875 96.56771Q438.75 98.13021 439.625 99.09896Q440.5 100.052086 441.84375 100.052086Q442.8125 100.052086 443.46875 99.66146Q444.14062 99.270836 444.64062 98.63021L445.73438 99.489586Q444.40625 101.53646 441.75 101.53646ZM441.53125 92.052086Q440.4375 92.052086 439.6875 92.84896Q438.95312 93.645836 438.78125 95.083336L444.0625 95.083336L444.0625 94.94271Q443.98438 93.56771 443.3125 92.81771Q442.65625 92.052086 441.53125 92.052086ZM453.46875 92.38021Q453.0625 92.31771 452.59375 92.31771Q450.8125 92.31771 450.17188 93.833336L450.17188 101.333336L448.375 101.333336L448.375 90.770836L450.125 90.770836L450.15625 91.989586Q451.04688 90.56771 452.67188 90.56771Q453.20312 90.56771 453.46875 90.708336L453.46875 92.38021ZM461.51562 98.53646Q461.51562 97.802086 460.96875 97.395836Q460.42188 96.989586 459.04688 96.69271Q457.67188 96.395836 456.85938 95.989586Q456.0625 95.583336 455.67188 95.020836Q455.29688 94.44271 455.29688 93.66146Q455.29688 92.364586 456.39062 91.47396Q457.48438 90.56771 459.20312 90.56771Q461.0 90.56771 462.10938 91.50521Q463.23438 92.427086 463.23438 93.864586L461.40625 93.864586Q461.40625 93.13021 460.78125 92.59896Q460.15625 92.052086 459.20312 92.052086Q458.20312 92.052086 457.64062 92.489586Q457.09375 92.91146 457.09375 93.614586Q457.09375 94.25521 457.60938 94.59896Q458.125 94.927086 459.48438 95.239586Q460.84375 95.53646 461.67188 95.958336Q462.51562 96.364586 462.92188 96.958336Q463.32812 97.552086 463.32812 98.395836Q463.32812 99.81771 462.1875 100.677086Q461.0625 101.53646 459.25 101.53646Q457.98438 101.53646 457.0 101.083336Q456.03125 100.63021 455.46875 99.833336Q454.92188 99.020836 454.92188 98.083336L456.73438 98.083336Q456.78125 98.989586 457.45312 99.520836Q458.14062 100.052086 459.25 100.052086Q460.28125 100.052086 460.89062 99.645836Q461.51562 99.22396 461.51562 98.53646Z" fill-rule="nonzero"/><path fill="#d9d9d9" d="M45.01875 36.784374L38.159374 36.784374L38.159374 55.8L35.3625 55.8L35.3625 36.784374L28.51875 36.784374L28.51875 34.471874L45.01875 34.471874L45.01875 36.784374ZM47.128124 47.721874Q47.128124 45.39375 48.05 43.534374Q48.971874 41.675 50.596874 40.675Q52.2375 39.659374 54.33125 39.659374Q57.565624 39.659374 59.565624 41.909374Q61.565624 44.14375 61.565624 47.8625L61.565624 48.05Q61.565624 50.3625 60.675 52.20625Q59.784374 54.034374 58.128124 55.065624Q56.4875 56.096874 54.3625 56.096874Q51.128124 56.096874 49.128124 53.8625Q47.128124 51.6125 47.128124 47.925L47.128124 47.721874ZM49.8625 48.05Q49.8625 50.690624 51.08125 52.284374Q52.3 53.878124 54.3625 53.878124Q56.425 53.878124 57.628124 52.26875Q58.846874 50.64375 58.846874 47.721874Q58.846874 45.128124 57.6125 43.503124Q56.378124 41.878124 54.33125 41.878124Q52.315624 41.878124 51.08125 43.4875Q49.8625 45.08125 49.8625 48.05ZM64.12813 47.721874Q64.12813 45.39375 65.05 43.534374Q65.97188 41.675 67.59688 40.675Q69.2375 39.659374 71.33125 39.659374Q74.56563 39.659374 76.56563 41.909374Q78.56563 44.14375 78.56563 47.8625L78.56563 48.05Q78.56563 50.3625 77.675 52.20625Q76.78438 54.034374 75.12813 55.065624Q73.4875 56.096874 71.3625 56.096874Q68.12813 56.096874 66.12813 53.8625Q64.12813 51.6125 64.12813 47.925L64.12813 47.721874ZM66.8625 48.05Q66.8625 50.690624 68.08125 52.284374Q69.3 53.878124 71.3625 53.878124Q73.425 53.878124 74.62813 52.26875Q75.84688 50.64375 75.84688 47.721874Q75.84688 45.128124 74.6125 43.503124Q73.37813 41.878124 71.33125 41.878124Q69.31563 41.878124 68.08125 43.4875Q66.8625 45.08125 66.8625 48.05ZM84.8 55.8L82.08125 55.8L82.08125 33.3L84.8 33.3L84.8 55.8ZM98.08125 51.596874Q98.08125 50.503124 97.25313 49.89375Q96.425 49.284374 94.3625 48.846874Q92.31563 48.409374 91.09688 47.8Q89.89375 47.175 89.31563 46.33125Q88.7375 45.471874 88.7375 44.3Q88.7375 42.346874 90.37813 41.003124Q92.03438 39.659374 94.59688 39.659374Q97.28438 39.659374 98.95625 41.05Q100.64375 42.440624 100.64375 44.6125L97.925 44.6125Q97.925 43.4875 96.97188 42.690624Q96.03438 41.878124 94.59688 41.878124Q93.1125 41.878124 92.26875 42.534374Q91.44063 43.175 91.44063 44.20625Q91.44063 45.190624 92.22188 45.690624Q93.00313 46.190624 95.01875 46.64375Q97.05 47.096874 98.31563 47.7375Q99.58125 48.3625 100.175 49.253124Q100.78438 50.128124 100.78438 51.409374Q100.78438 53.534374 99.08125 54.815624Q97.39375 56.096874 94.675 56.096874Q92.78438 56.096874 91.31563 55.425Q89.84688 54.7375 89.01875 53.534374Q88.19063 52.33125 88.19063 50.925L90.90938 50.925Q90.97188 52.284374 91.9875 53.08125Q93.01875 53.878124 94.675 53.878124Q96.22188 53.878124 97.14375 53.253124Q98.08125 52.628124 98.08125 51.596874ZM106.56563 41.8625Q108.3625 39.659374 111.25313 39.659374Q116.26875 39.659374 116.31563 45.33125L116.31563 55.8L113.6125 55.8L113.6125 45.315624Q113.59688 43.596874 112.81563 42.784374Q112.05 41.95625 110.425 41.95625Q109.1125 41.95625 108.1125 42.659374Q107.1125 43.3625 106.56563 44.503124L106.56563 55.8L103.84688 55.8L103.84688 33.3L106.56563 33.3L106.56563 41.8625ZM127.425 56.096874Q124.20625 56.096874 122.175 53.9875Q120.15938 51.8625 120.15938 48.315624L120.15938 47.815624Q120.15938 45.45625 121.06563 43.6125Q121.97188 41.753124 123.58125 40.70625Q125.20625 39.659374 127.09688 39.659374Q130.175 39.659374 131.89375 41.690624Q133.6125 43.721874 133.6125 47.51875L133.6125 48.64375L122.87813 48.64375Q122.925 50.9875 124.2375 52.440624Q125.55 53.878124 127.58125 53.878124Q129.00313 53.878124 130.00313 53.3Q131.00313 52.70625 131.75313 51.7375L133.40938 53.034374Q131.40938 56.096874 127.425 56.096874ZM127.09688 41.878124Q125.45625 41.878124 124.33125 43.08125Q123.22188 44.26875 122.95625 46.425L130.89375 46.425L130.89375 46.221874Q130.78438 44.159374 129.78438 43.01875Q128.78438 41.878124 127.09688 41.878124ZM136.19063 47.7375Q136.19063 44.096874 137.90938 41.878124Q139.64375 39.659374 142.44063 39.659374Q145.2375 39.659374 146.8625 41.565624L146.8625 33.3L149.56563 33.3L149.56563 55.8L147.08125 55.8L146.94063 54.096874Q145.31563 56.096874 142.425 56.096874Q139.65938 56.096874 137.925 53.846874Q136.19063 51.58125 136.19063 47.940624L136.19063 47.7375ZM138.90938 48.05Q138.90938 50.753124 140.01875 52.284374Q141.12813 53.8 143.09688 53.8Q145.675 53.8 146.8625 51.471874L146.8625 44.190624Q145.64375 41.95625 143.12813 41.95625Q141.12813 41.95625 140.01875 43.503124Q138.90938 45.034374 138.90938 48.05ZM167.56563 46.3Q163.94063 45.253124 162.28438 43.7375Q160.64375 42.221874 160.64375 39.9875Q160.64375 37.471874 162.65938 35.83125Q164.675 34.175 167.89375 34.175Q170.09688 34.175 171.81563 35.034374Q173.53438 35.878124 174.47188 37.378124Q175.425 38.8625 175.425 40.64375L172.59688 40.64375Q172.59688 38.70625 171.3625 37.596874Q170.14375 36.4875 167.89375 36.4875Q165.81563 36.4875 164.64375 37.409374Q163.4875 38.33125 163.4875 39.95625Q163.4875 41.253124 164.59688 42.159374Q165.70625 43.05 168.3625 43.8Q171.01875 44.55 172.51875 45.45625Q174.01875 46.346874 174.7375 47.55Q175.47188 48.753124 175.47188 50.378124Q175.47188 52.971874 173.44063 54.534374Q171.425 56.096874 168.05 56.096874Q165.84688 56.096874 163.94063 55.253124Q162.03438 54.409374 161.00313 52.940624Q159.97188 51.471874 159.97188 49.6125L162.8 49.6125Q162.8 51.55 164.22188 52.675Q165.65938 53.8 168.05 53.8Q170.26875 53.8 171.45625 52.89375Q172.64375 51.971874 172.64375 50.409374Q172.64375 48.846874 171.53438 47.9875Q170.44063 47.128124 167.56563 46.3ZM182.53438 36.1125L182.53438 39.95625L185.4875 39.95625L185.4875 42.05L182.53438 42.05L182.53438 51.878124Q182.53438 52.83125 182.925 53.315624Q183.31563 53.784374 184.26875 53.784374Q184.7375 53.784374 185.56563 53.596874L185.56563 55.8Q184.4875 56.096874 183.4875 56.096874Q181.65938 56.096874 180.7375 55.003124Q179.81563 53.89375 179.81563 51.878124L179.81563 42.05L176.925 42.05L176.925 39.95625L179.81563 39.95625L179.81563 36.1125L182.53438 36.1125ZM198.64375 55.8Q198.40938 55.33125 198.25313 54.128124Q196.3625 56.096874 193.7375 56.096874Q191.39375 56.096874 189.89375 54.76875Q188.39375 53.440624 188.39375 51.409374Q188.39375 48.925 190.26875 47.565624Q192.15938 46.190624 195.58125 46.190624L198.20625 46.190624L198.20625 44.940624Q198.20625 43.51875 197.3625 42.690624Q196.51875 41.846874 194.8625 41.846874Q193.40938 41.846874 192.425 42.58125Q191.44063 43.3 191.44063 44.346874L188.72188 44.346874Q188.72188 43.159374 189.56563 42.05Q190.40938 40.940624 191.84688 40.3Q193.28438 39.659374 195.01875 39.659374Q197.75313 39.659374 199.3 41.034374Q200.8625 42.39375 200.925 44.8L200.925 52.096874Q200.925 54.26875 201.47188 55.565624L201.47188 55.8L198.64375 55.8ZM194.14375 53.7375Q195.40938 53.7375 196.55 53.08125Q197.70625 52.409374 198.20625 51.3625L198.20625 48.1125L196.08125 48.1125Q191.1125 48.1125 191.1125 51.01875Q191.1125 52.3 191.95625 53.01875Q192.8 53.7375 194.14375 53.7375ZM208.53438 36.1125L208.53438 39.95625L211.4875 39.95625L211.4875 42.05L208.53438 42.05L208.53438 51.878124Q208.53438 52.83125 208.925 53.315624Q209.31563 53.784374 210.26875 53.784374Q210.7375 53.784374 211.56563 53.596874L211.56563 55.8Q210.4875 56.096874 209.4875 56.096874Q207.65938 56.096874 206.7375 55.003124Q205.81563 53.89375 205.81563 51.878124L205.81563 42.05L202.925 42.05L202.925 39.95625L205.81563 39.95625L205.81563 36.1125L208.53438 36.1125ZM217.8 55.8L215.08125 55.8L215.08125 39.95625L217.8 39.95625L217.8 55.8ZM214.8625 35.753124Q214.8625 35.08125 215.26875 34.628124Q215.675 34.175 216.45625 34.175Q217.25313 34.175 217.65938 34.628124Q218.08125 35.08125 218.08125 35.753124Q218.08125 36.409374 217.65938 36.846874Q217.25313 37.284374 216.45625 37.284374Q215.675 37.284374 215.26875 36.846874Q214.8625 36.409374 214.8625 35.753124ZM231.08125 51.596874Q231.08125 50.503124 230.25313 49.89375Q229.425 49.284374 227.3625 48.846874Q225.31563 48.409374 224.09688 47.8Q222.89375 47.175 222.31563 46.33125Q221.7375 45.471874 221.7375 44.3Q221.7375 42.346874 223.37813 41.003124Q225.03438 39.659374 227.59688 39.659374Q230.28438 39.659374 231.95625 41.05Q233.64375 42.440624 233.64375 44.6125L230.925 44.6125Q230.925 43.4875 229.97188 42.690624Q229.03438 41.878124 227.59688 41.878124Q226.1125 41.878124 225.26875 42.534374Q224.44063 43.175 224.44063 44.20625Q224.44063 45.190624 225.22188 45.690624Q226.00313 46.190624 228.01875 46.64375Q230.05 47.096874 231.31563 47.7375Q232.58125 48.3625 233.175 49.253124Q233.78438 50.128124 233.78438 51.409374Q233.78438 53.534374 232.08125 54.815624Q230.39375 56.096874 227.675 56.096874Q225.78438 56.096874 224.31563 55.425Q222.84688 54.7375 222.01875 53.534374Q221.19063 52.33125 221.19063 50.925L223.90938 50.925Q223.97188 52.284374 224.9875 53.08125Q226.01875 53.878124 227.675 53.878124Q229.22188 53.878124 230.14375 53.253124Q231.08125 52.628124 231.08125 51.596874ZM240.53438 36.1125L240.53438 39.95625L243.4875 39.95625L243.4875 42.05L240.53438 42.05L240.53438 51.878124Q240.53438 52.83125 240.925 53.315624Q241.31563 53.784374 242.26875 53.784374Q242.7375 53.784374 243.56563 53.596874L243.56563 55.8Q242.4875 56.096874 241.4875 56.096874Q239.65938 56.096874 238.7375 55.003124Q237.81563 53.89375 237.81563 51.878124L237.81563 42.05L234.925 42.05L234.925 39.95625L237.81563 39.95625L237.81563 36.1125L240.53438 36.1125ZM249.8 55.8L247.08125 55.8L247.08125 39.95625L249.8 39.95625L249.8 55.8ZM246.8625 35.753124Q246.8625 35.08125 247.26875 34.628124Q247.675 34.175 248.45625 34.175Q249.25313 34.175 249.65938 34.628124Q250.08125 35.08125 250.08125 35.753124Q250.08125 36.409374 249.65938 36.846874Q249.25313 37.284374 248.45625 37.284374Q247.675 37.284374 247.26875 36.846874Q246.8625 36.409374 246.8625 35.753124ZM260.20624 53.878124Q261.65936 53.878124 262.7375 53.003124Q263.83124 52.128124 263.9406 50.8L266.5031 50.8Q266.4406 52.159374 265.5656 53.39375Q264.70624 54.628124 263.2531 55.3625Q261.8156 56.096874 260.20624 56.096874Q256.97186 56.096874 255.05 53.940624Q253.14375 51.76875 253.14375 48.01875L253.14375 47.565624Q253.14375 45.253124 253.9875 43.45625Q254.84688 41.64375 256.425 40.659374Q258.01874 39.659374 260.1906 39.659374Q262.8625 39.659374 264.6281 41.253124Q266.39374 42.846874 266.5031 45.39375L263.9406 45.39375Q263.83124 43.8625 262.78436 42.878124Q261.7375 41.878124 260.1906 41.878124Q258.1281 41.878124 256.9875 43.378124Q255.8625 44.8625 255.8625 47.675L255.8625 48.175Q255.8625 50.925 256.9875 52.409374Q258.1125 53.878124 260.20624 53.878124ZM279.08124 51.596874Q279.08124 50.503124 278.2531 49.89375Q277.425 49.284374 275.3625 48.846874Q273.3156 48.409374 272.09686 47.8Q270.89374 47.175 270.3156 46.33125Q269.7375 45.471874 269.7375 44.3Q269.7375 42.346874 271.3781 41.003124Q273.03436 39.659374 275.59686 39.659374Q278.28436 39.659374 279.95624 41.05Q281.64374 42.440624 281.64374 44.6125L278.925 44.6125Q278.925 43.4875 277.97186 42.690624Q277.03436 41.878124 275.59686 41.878124Q274.1125 41.878124 273.26874 42.534374Q272.4406 43.175 272.4406 44.20625Q272.4406 45.190624 273.22186 45.690624Q274.0031 46.190624 276.01874 46.64375Q278.05 47.096874 279.3156 47.7375Q280.58124 48.3625 281.175 49.253124Q281.78436 50.128124 281.78436 51.409374Q281.78436 53.534374 280.08124 54.815624Q278.39374 56.096874 275.675 56.096874Q273.78436 56.096874 272.3156 55.425Q270.84686 54.7375 270.01874 53.534374Q269.1906 52.33125 269.1906 50.925L271.90936 50.925Q271.97186 52.284374 272.9875 53.08125Q274.01874 53.878124 275.675 53.878124Q277.22186 53.878124 278.14374 53.253124Q279.08124 52.628124 279.08124 51.596874Z" fill-rule="nonzero"/></svg>